<?xml version="1.0" encoding="UTF-8"?>
<svg width="256" height="256" viewBox="0 0 256 256" xmlns="http://www.w3.org/2000/svg">
  <defs>
    <linearGradient id="bg" x1="0" y1="0" x2="1" y2="1">
      <stop offset="0" stop-color="#3b82f6"/>
      <stop offset="1" stop-color="#0ea5a4"/>
    </linearGradient>
    <linearGradient id="paper" x1="0" y1="0" x2="0" y2="1">
      <stop offset="0" stop-color="#ffffff"/>
      <stop offset="1" stop-color="#eef2f7"/>
    </linearGradient>
    <filter id="sh" x="-20%" y="-20%" width="140%" height="140%">
      <feDropShadow dx="0" dy="3" stdDeviation="5" flood-color="#0b3b5e" flood-opacity="0.25"/>
    </filter>
  </defs>
  <rect x="8" y="8" width="240" height="240" rx="54" fill="url(#bg)"/>
  <g transform="rotate(-7 120 128)" filter="url(#sh)">
    <rect x="62" y="50" width="116" height="150" rx="12" fill="url(#paper)" stroke="#cbd5e1" stroke-width="2"/>
    <path d="M146 50 v24 a8 8 0 0 0 8 8 h24" fill="none" stroke="#cbd5e1" stroke-width="2"/>
    <rect x="80" y="92" width="60" height="8" rx="4" fill="#ef4444"/>
    <rect x="80" y="112" width="80" height="6" rx="3" fill="#cbd5e1"/>
    <rect x="80" y="128" width="72" height="6" rx="3" fill="#cbd5e1"/>
    <rect x="80" y="144" width="80" height="6" rx="3" fill="#cbd5e1"/>
    <rect x="80" y="160" width="54" height="6" rx="3" fill="#cbd5e1"/>
  </g>
  <circle cx="156" cy="160" r="44" fill="#0ea5a4" fill-opacity="0.12"/>
  <circle cx="156" cy="160" r="44" fill="none" stroke="#ffffff" stroke-width="12"/>
  <path d="M137 160 l13 14 l26 -31" fill="none" stroke="#ffffff" stroke-width="12" stroke-linecap="round" stroke-linejoin="round"/>
  <line x1="189" y1="193" x2="214" y2="218" stroke="#ffffff" stroke-width="18" stroke-linecap="round"/>
</svg>
